<?xml version="1.0" standalone="no"?>
<!DOCTYPE svg PUBLIC "-//W3C//DTD SVG 20010904//EN"
 "http://www.w3.org/TR/2001/REC-SVG-20010904/DTD/svg10.dtd">
<svg version="1.0" xmlns="http://www.w3.org/2000/svg"
 width="671.000000pt" height="671.000000pt" viewBox="0 0 671.000000 671.000000"
 preserveAspectRatio="xMidYMid meet">
<metadata>
Created by potrace 1.11, written by Peter Selinger 2001-2013
</metadata>
<g transform="translate(0.000000,671.000000) scale(0.100000,-0.100000)"
fill="#000000" stroke="none">
<path d="M2240 6318 c0 -7 27 -47 60 -88 57 -71 76 -107 68 -128 -1 -5 -64 8
-138 29 -74 21 -138 39 -142 39 -11 0 -10 -42 1 -58 5 -8 55 -30 112 -50 57
-21 103 -41 101 -47 -1 -6 -57 -11 -139 -12 -110 -2 -139 -5 -152 -18 -15 -15
-14 -17 2 -30 17 -12 36 -15 177 -31 30 -4 64 -11 74 -16 18 -10 18 -11 2 -20
-10 -5 -54 -18 -99 -29 -81 -18 -147 -45 -147 -59 0 -18 48 -19 250 -6 159 11
183 -6 144 -100 -21 -50 -20 -108 2 -142 15 -23 18 -24 29 -9 7 10 15 35 19
56 4 30 16 49 48 76 47 40 164 103 243 129 100 34 435 42 595 13 113 -19 265
-33 395 -36 57 -1 63 -4 110 -47 28 -25 95 -81 150 -125 55 -44 116 -93 135
-108 l35 -29 -19 -35 c-10 -20 -26 -44 -35 -54 -9 -10 -31 -36 -50 -58 -18
-22 -79 -87 -136 -145 -91 -94 -136 -142 -242 -262 -17 -20 -69 -85 -114 -145
-114 -151 -167 -212 -294 -337 -129 -127 -193 -178 -274 -216 -92 -44 -209
-127 -281 -199 -96 -97 -149 -207 -184 -386 -26 -129 -56 -182 -171 -301 -140
-145 -229 -253 -301 -367 -70 -112 -168 -244 -222 -300 -76 -79 -157 -131
-379 -241 l-210 -105 -144 -153 c-481 -509 -631 -644 -737 -663 -35 -6 -179
29 -201 49 -16 14 -34 19 -61 17 -24 -2 -47 -50 -54 -111 -4 -30 -9 -71 -11
-90 -6 -43 -14 -174 -20 -294 -7 -154 -16 -290 -20 -321 -8 -58 -6 -170 4
-224 13 -63 48 -130 70 -133 61 -6 73 -3 94 17 12 13 35 58 51 101 16 44 44
108 63 143 19 35 40 80 46 100 16 45 101 174 142 215 17 17 42 54 55 81 27 55
117 163 226 270 170 166 283 258 488 396 94 63 213 143 266 179 53 36 141 89
195 119 190 103 260 146 365 225 58 43 149 108 203 143 54 35 104 68 110 73
147 118 271 219 303 248 22 20 76 69 119 107 43 39 93 84 111 100 136 126 250
218 346 282 l66 44 154 -40 c84 -21 169 -42 188 -45 19 -3 46 -8 60 -11 37 -7
248 -43 295 -49 22 -4 51 -8 65 -11 14 -2 43 -7 65 -10 69 -9 159 -26 198 -36
37 -10 37 -10 23 -37 -8 -15 -25 -38 -38 -52 -83 -88 -134 -161 -276 -395
-101 -167 -272 -427 -293 -445 -3 -3 -25 -32 -49 -65 -43 -58 -120 -138 -194
-200 -20 -16 -36 -33 -36 -37 0 -14 -112 -194 -140 -227 -24 -27 -28 -37 -19
-53 22 -41 127 -91 409 -195 36 -13 118 -46 182 -74 65 -27 133 -51 153 -54
19 -3 52 -7 73 -10 69 -11 249 -7 291 6 23 7 51 24 62 37 54 70 -7 135 -147
155 -39 6 -64 19 -88 46 -11 12 -27 21 -36 21 -25 0 -165 140 -191 192 -17 32
-22 60 -22 110 1 139 57 212 528 688 188 190 370 376 405 415 119 133 177 239
165 306 -14 81 -41 107 -202 193 -67 36 -151 83 -185 104 -109 67 -228 133
-358 198 -69 35 -152 78 -185 97 -33 18 -103 50 -156 70 -52 21 -104 43 -115
51 -18 14 -18 15 0 35 40 44 595 402 693 447 123 57 173 84 248 133 140 93
171 96 257 29 20 -15 54 -35 75 -44 21 -9 70 -31 108 -49 123 -58 542 -200
647 -220 32 -6 40 -3 70 27 38 37 134 163 189 248 63 97 116 202 164 325 100
258 128 323 174 400 54 90 67 123 115 285 44 149 49 176 38 195 -8 15 -10 15
-23 -1 -8 -9 -23 -42 -34 -72 -11 -31 -26 -57 -33 -60 -11 -3 -13 20 -9 122 5
117 4 128 -14 139 -10 6 -19 19 -19 29 0 26 -20 32 -40 12 -11 -11 -27 -41
-37 -68 -21 -58 -45 -75 -34 -24 12 58 8 83 -14 83 -24 0 -46 -43 -70 -140
-42 -171 -73 -201 -151 -146 -33 24 -59 34 -102 38 l-57 6 65 -64 c77 -74 114
-137 137 -228 14 -54 14 -72 4 -110 -57 -214 -323 -566 -442 -584 -31 -5 -60
7 -136 59 -34 23 -91 56 -127 74 -36 17 -66 35 -66 41 0 5 -6 9 -14 9 -16 0
-46 26 -46 40 0 4 14 13 31 20 17 7 51 30 76 51 25 20 61 40 80 44 39 7 46 19
68 120 9 38 22 77 31 86 8 9 27 41 42 70 l27 54 70 5 c39 3 75 9 82 13 35 23
36 135 2 214 -21 49 -74 113 -94 113 -6 0 -28 21 -49 46 -36 43 -81 70 -130
80 -11 2 -40 18 -65 35 -106 77 -329 75 -470 -3 -101 -56 -167 -125 -177 -185
-5 -28 -28 -53 -50 -53 -6 0 -31 18 -56 40 -87 76 -417 261 -536 300 -62 20
-117 45 -362 162 l-134 64 -251 -2 c-236 -2 -479 -10 -521 -18 -33 -6 -167
-19 -222 -21 -34 -1 -68 5 -95 18 -23 10 -84 30 -135 43 -107 28 -157 53 -261
129 -73 55 -101 66 -101 43z"/>
</g>
</svg>
