<?xml version="1.0" encoding="utf-8"?>
<!-- Generator: Adobe Illustrator 23.0.3, SVG Export Plug-In . SVG Version: 6.00 Build 0)  -->
<svg version="1.1" id="Ebene_1" xmlns="http://www.w3.org/2000/svg" xmlns:xlink="http://www.w3.org/1999/xlink" x="0px" y="0px"
	 viewBox="0 0 500 500" style="enable-background:new 0 0 500 500;" xml:space="preserve">
<style type="text/css">
	.st0{fill:url(#SVGID_1_);}
	.st1{fill:url(#path4623_1_);}
</style>
<linearGradient id="SVGID_1_" gradientUnits="userSpaceOnUse" x1="36.7052" y1="461.5774" x2="462.2696" y2="39.4395">
	<stop  offset="0" style="stop-color:#000000"/>
	<stop  offset="1" style="stop-color:#4D4D4D"/>
</linearGradient>
<path class="st0" d="M371.8,500H128.2C57.4,500,0,442.6,0,371.8V128.2C0,57.4,57.4,0,128.2,0h243.5C442.6,0,500,57.4,500,128.2
	v243.5C500,442.6,442.6,500,371.8,500z"/>
<g id="layer1">
	<g id="layer1-9" transform="translate(-10.237228,-69.08535)">
		<g id="g5171" transform="translate(5.61266,-9.8889729)">
			
				<linearGradient id="path4623_1_" gradientUnits="userSpaceOnUse" x1="74.2753" y1="118.253" x2="409.0725" y2="410.2458" gradientTransform="matrix(1 0 0 -1 -4.6246 587.426)">
				<stop  offset="0" style="stop-color:#FF6600"/>
				<stop  offset="0.2602" style="stop-color:#FF0000"/>
				<stop  offset="0.4074" style="stop-color:#E81700"/>
				<stop  offset="0.5503" style="stop-color:#BF0000"/>
				<stop  offset="0.7287" style="stop-color:#800000"/>
				<stop  offset="1" style="stop-color:#550000"/>
			</linearGradient>
			<path id="path4623" class="st1" d="M82.2,483.5c-2.2-2.8-3.5-9.2-3.1-14.4c0.2-2.8,1.1-13.5,1.5-23.6c0.4-10.5,1.5-19.2,2.2-20.5
				c1.3-2.4,3.1-2.8,4.8-1.5c2,1.7,9.6,3.5,12,2.6c5-1.5,12.2-7.9,28.6-25.1l16.8-17.7l12.2-6.1c16.8-8.3,19.2-10.7,32.1-30.5
				c2.2-3.3,7.2-9.6,11.3-13.7c9.2-9.4,10.5-11.3,11.3-17.7c1.1-7.9,4.6-15.7,8.7-20.1c3.7-4.1,12.9-10.3,17.7-12
				c4.4-1.7,20.1-17,26-25.5c4.6-6.5,13.3-16.6,22.3-25.5c5.9-5.9,10.9-12.2,10.9-13.7c0-0.4-1.7-2-3.9-3.3
				c-2.2-1.3-6.5-4.8-9.6-7.6l-5.7-5l-10.9-0.7c-5.9-0.4-12.7-1.1-15.1-1.7c-2.6-0.7-8.5-0.9-16.1-0.7c-10.7,0.4-12.7,0.9-18.5,3.7
				c-7.4,3.7-10.3,6.3-10.3,10c0,3.3-2.6,2.2-3.1-1.3c-0.2-1.5,0.2-3.9,0.9-5.2c0.7-1.3,0.9-3.1,0.7-3.9c-0.7-1.5-2-1.5-11.1-0.9
				c-8.7,0.7-10.5,0.4-10-0.7c0.2-0.7,3.1-2,6.3-2.6c9.2-1.7,9.4-3.1,0.2-3.9c-6.5-0.7-7.9-1.1-7.6-2.4c0.2-1.3,1.5-1.5,8.3-1.3
				c4.6,0.2,8.1,0,8.1-0.7c0-0.4-2.8-1.7-6.1-2.8c-4.6-1.3-6.1-2.4-6.1-3.7c0-1.1,0.2-2,0.2-2c0.2,0,3.3,0.9,7,2s7,2,7.4,2
				c1.7,0,0.7-2.8-2.8-6.8c-2-2.2-3.7-4.4-3.7-4.8c0-1.5,2.8-0.2,7.2,3.5c3.5,2.8,6.5,4.4,10.5,5.2c3.1,0.7,6.8,1.7,8.5,2.6
				c2.4,1.3,4.4,1.3,13.5,0.2c5.9-0.7,18.1-1.3,27.1-1.3h16.6l12.2,5.9c6.8,3.3,12.7,5.9,13.1,5.9c2.6,0,25.7,12.7,28.1,15.3
				c3.1,3.5,6.1,3.3,6.1-0.7c0-3.3,7-9.2,13.5-11.1c7-2.2,16.8-1.5,20.3,1.5c1.3,1.1,2.6,2,3.3,2c2.2,0,6.5,2.6,7.2,4.1
				c0.2,0.9,1.5,2.2,2.8,2.6c3.1,1.3,5.9,7,5.9,11.6c0,5-1.1,6.1-5.7,5.9c-3.5-0.2-3.9,0-5,2.6c-0.7,1.7-1.5,3.5-2.4,3.7
				c-0.7,0.4-1.5,3.1-2,5.9c-0.7,4.4-1.1,5-2.8,5c-1.3,0-3.3,1.1-4.6,2.6c-1.3,1.3-3.1,2.6-3.9,2.6c-0.9,0-1.5,0.7-1.5,1.5
				c0,0.9,0.7,1.5,1.5,1.5c0.9,0,1.5,0.4,1.5,0.9s1.1,1.1,2.4,1.5c1.3,0.4,4.6,2.2,7.2,4.1c6.8,5,8.5,4.8,15.9-2.8
				c6.3-6.5,11.6-15.1,14.4-22.7c1.3-3.9,1.3-4.8-0.2-9.6c-1.1-3.5-3.3-6.8-5.7-9.2l-3.9-3.7h2.8c1.5,0,3.9,1.1,5.2,2.2
				c3.7,3.5,5.7,1.5,7.9-7.6c1.3-5.5,2.4-7.9,3.5-7.9c1.3,0,1.3,0.9,0.9,3.7c-0.9,4.4,0.4,3.7,2.2-1.1c1.1-3.5,3.5-5,3.5-2.4
				c0,0.9,0.4,1.5,1.1,1.5c0.9,0,1.1,2.2,0.7,7.2c-0.7,7.9,0.7,9.4,2.4,3.1c1.3-4.1,3.1-5.5,3.1-2.2c0,0.9-0.7,3.9-1.5,6.3
				c-0.9,2.6-2,6.3-2.6,8.7c-0.7,2.2-2.6,6.3-4.4,8.9c-1.7,2.6-4.8,9.4-6.8,15.3c-2,5.7-5.2,13.1-7,16.6c-5.7,10-14,20.7-15.9,20.7
				c-3.1,0-30.5-9.2-35.3-11.8c-2.4-1.3-5-2.4-5.5-2.4c-0.7,0-2.4-1.1-4.1-2.6c-4.1-3.5-6.8-3.3-12.9,1.3c-2.8,2.2-7.4,4.8-10.3,5.7
				c-2.8,0.9-7.4,3.5-10.3,5.2c-8.9,5.9-11.8,7.9-21.4,14c-5,3.3-9.2,6.3-8.9,7c0.2,0.7,3.3,2,6.8,3.3s7.6,3.1,9.4,4.1
				c1.5,1.1,5.9,3.3,9.6,5s10.9,5.7,16.1,8.7c5,3.1,11.3,6.5,13.7,7.9c6.5,3.3,8.5,5.7,8.5,9.8c0,5.9-5.7,12.9-30.1,36.9
				c-24.7,24.2-28.1,28.8-27.5,37.3c0.2,3.5,1.1,5.2,5,9.4c2.6,2.8,5.5,5.2,6.3,5.2c0.9,0,1.7,0.7,2,1.5c0.2,0.9,2.6,1.7,5.2,2.2
				c5.5,0.9,8.1,2.8,7.6,5.9c-0.4,3.7-4.6,4.8-14.8,4.4c-7.2-0.2-10.5-0.9-14-2.6c-2.4-1.3-10-4.4-17-6.8
				c-6.8-2.4-13.5-5.5-14.8-6.8c-2.4-2.2-2.4-2.4-0.4-4.4c1.1-1.1,3.5-5,5.5-8.7c2.2-4.1,4.1-6.5,5.2-6.5c2.2,0,14.8-16.6,23.6-31
				c10-16.8,12-19.4,16.4-24.2c2.4-2.4,3.7-4.8,3.3-5.2c-0.4-0.4-8.7-2-18.3-3.3s-22-3.7-27.3-5l-9.8-2.6l-5.2,3.5
				c-2.8,2-10,7.6-15.7,12.9c-17,15.5-26.4,23.3-34,28.1c-3.9,2.4-9.6,6.5-12.4,8.9s-9.2,6.3-14,8.5c-4.8,2.4-12,6.8-16.1,9.6
				c-3.9,2.8-11.3,8.1-16.6,11.1c-10.7,6.8-30.8,26.4-32.7,31.6c-0.7,1.7-1.5,3.3-2,3.3c-1.1,0-8.3,10.9-8.3,12.4
				c0,0.7-0.9,2.4-1.7,3.7c-1.1,1.3-2.8,5.2-3.9,8.5c-1.7,5-2.6,6.1-4.8,6.3C84.4,484.8,82.8,484.4,82.2,483.5L82.2,483.5z"/>
			<g id="flowRoot5033" transform="matrix(0.26458333,0,0,0.26458333,13.119809,129.44937)">
			</g>
		</g>
	</g>
</g>
</svg>
