<?xml version="1.0" encoding="utf-8"?>
<!-- Generator: Adobe Illustrator 23.0.3, SVG Export Plug-In . SVG Version: 6.00 Build 0)  -->
<svg version="1.1"
	 id="svg8" inkscape:version="0.92.2 (5c3e80d, 2017-08-06)" sodipodi:docname="Sportest_Logo_v3.0.svg" xmlns:cc="http://creativecommons.org/ns#" xmlns:dc="http://purl.org/dc/elements/1.1/" xmlns:inkscape="http://www.inkscape.org/namespaces/inkscape" xmlns:osb="http://www.openswatchbook.org/uri/2009/osb" xmlns:rdf="http://www.w3.org/1999/02/22-rdf-syntax-ns#" xmlns:sodipodi="http://sodipodi.sourceforge.net/DTD/sodipodi-0.dtd" xmlns:svg="http://www.w3.org/2000/svg"
	 xmlns="http://www.w3.org/2000/svg" xmlns:xlink="http://www.w3.org/1999/xlink" x="0px" y="0px" viewBox="0 0 595.3 841.9"
	 style="enable-background:new 0 0 595.3 841.9;" xml:space="preserve">
<style type="text/css">
	.st0{fill:url(#path4623_1_);}
</style>
<sodipodi:namedview  bordercolor="#666666" borderopacity="1.0" id="base" inkscape:current-layer="g5171" inkscape:cx="342.21807" inkscape:cy="1003.5284" inkscape:document-units="mm" inkscape:pageopacity="0.0" inkscape:pageshadow="2" inkscape:window-height="705" inkscape:window-maximized="1" inkscape:window-width="1366" inkscape:window-x="-8" inkscape:window-y="-8" inkscape:zoom="0.7" pagecolor="#ffffff" showgrid="false">
	</sodipodi:namedview>
<g id="layer1" inkscape:groupmode="layer" inkscape:label="Ebene 1">
	<g id="layer1-9" transform="translate(-10.237228,-69.08535)" inkscape:label="Ebene 1">
		<g id="g5171" transform="translate(5.61266,-9.8889729)">
			<linearGradient id="path4623_1_" gradientUnits="userSpaceOnUse" x1="22.141" y1="349.2467" x2="175.5789" y2="215.4261">
				<stop  offset="0" style="stop-color:#FF6600"/>
				<stop  offset="0.2602" style="stop-color:#FF0000"/>
				<stop  offset="0.4074" style="stop-color:#E81700"/>
				<stop  offset="0.5503" style="stop-color:#BF0000"/>
				<stop  offset="0.7287" style="stop-color:#800000"/>
				<stop  offset="1" style="stop-color:#550000"/>
			</linearGradient>
			<path id="path4623" inkscape:connector-curvature="0" class="st0" d="M27.9,355.8c-1-1.3-1.6-4.2-1.4-6.6
				c0.1-1.3,0.5-6.2,0.7-10.8c0.2-4.8,0.7-8.8,1-9.4c0.6-1.1,1.4-1.3,2.2-0.7c0.9,0.8,4.4,1.6,5.5,1.2c2.3-0.7,5.6-3.6,13.1-11.5
				l7.7-8.1l5.6-2.8c7.7-3.8,8.8-4.9,14.7-14c1-1.5,3.3-4.4,5.2-6.3c4.2-4.3,4.8-5.2,5.2-8.1c0.5-3.6,2.1-7.2,4-9.2
				c1.7-1.9,5.9-4.7,8.1-5.5c2-0.8,9.2-7.8,11.9-11.7c2.1-3,6.1-7.6,10.2-11.7c2.7-2.7,5-5.6,5-6.3c0-0.2-0.8-0.9-1.8-1.5
				s-3-2.2-4.4-3.5l-2.6-2.3l-5-0.3c-2.7-0.2-5.8-0.5-6.9-0.8c-1.2-0.3-3.9-0.4-7.4-0.3c-4.9,0.2-5.8,0.4-8.5,1.7
				c-3.4,1.7-4.7,2.9-4.7,4.6c0,1.5-1.2,1-1.4-0.6c-0.1-0.7,0.1-1.8,0.4-2.4c0.3-0.6,0.4-1.4,0.3-1.8c-0.3-0.7-0.9-0.7-5.1-0.4
				c-4,0.3-4.8,0.2-4.6-0.3c0.1-0.3,1.4-0.9,2.9-1.2c4.2-0.8,4.3-1.4,0.1-1.8c-3-0.3-3.6-0.5-3.5-1.1c0.1-0.6,0.7-0.7,3.8-0.6
				c2.1,0.1,3.7,0,3.7-0.3c0-0.2-1.3-0.8-2.8-1.3c-2.1-0.6-2.8-1.1-2.8-1.7c0-0.5,0.1-0.9,0.1-0.9c0.1,0,1.5,0.4,3.2,0.9
				c1.7,0.5,3.2,0.9,3.4,0.9c0.8,0,0.3-1.3-1.3-3.1c-0.9-1-1.7-2-1.7-2.2c0-0.7,1.3-0.1,3.3,1.6c1.6,1.3,3,2,4.8,2.4
				c1.4,0.3,3.1,0.8,3.9,1.2c1.1,0.6,2,0.6,6.2,0.1c2.7-0.3,8.3-0.6,12.4-0.6h7.6l5.6,2.7c3.1,1.5,5.8,2.7,6,2.7
				c1.2,0,11.8,5.8,12.9,7c1.4,1.6,2.8,1.5,2.8-0.3c0-1.5,3.2-4.2,6.2-5.1c3.2-1,7.7-0.7,9.3,0.7c0.6,0.5,1.2,0.9,1.5,0.9
				c1,0,3,1.2,3.3,1.9c0.1,0.4,0.7,1,1.3,1.2c1.4,0.6,2.7,3.2,2.7,5.3c0,2.3-0.5,2.8-2.6,2.7c-1.6-0.1-1.8,0-2.3,1.2
				c-0.3,0.8-0.7,1.6-1.1,1.7c-0.3,0.2-0.7,1.4-0.9,2.7c-0.3,2-0.5,2.3-1.3,2.3c-0.6,0-1.5,0.5-2.1,1.2c-0.6,0.6-1.4,1.2-1.8,1.2
				c-0.4,0-0.7,0.3-0.7,0.7c0,0.4,0.3,0.7,0.7,0.7s0.7,0.2,0.7,0.4c0,0.2,0.5,0.5,1.1,0.7c0.6,0.2,2.1,1,3.3,1.9
				c3.1,2.3,3.9,2.2,7.3-1.3c2.9-3,5.3-6.9,6.6-10.4c0.6-1.8,0.6-2.2-0.1-4.4c-0.5-1.6-1.5-3.1-2.6-4.2l-1.8-1.7h1.3
				c0.7,0,1.8,0.5,2.4,1c1.7,1.6,2.6,0.7,3.6-3.5c0.6-2.5,1.1-3.6,1.6-3.6c0.6,0,0.6,0.4,0.4,1.7c-0.4,2,0.2,1.7,1-0.5
				c0.5-1.6,1.6-2.3,1.6-1.1c0,0.4,0.2,0.7,0.5,0.7c0.4,0,0.5,1,0.3,3.3c-0.3,3.6,0.3,4.3,1.1,1.4c0.6-1.9,1.4-2.5,1.4-1
				c0,0.4-0.3,1.8-0.7,2.9c-0.4,1.2-0.9,2.9-1.2,4c-0.3,1-1.2,2.9-2,4.1c-0.8,1.2-2.2,4.3-3.1,7c-0.9,2.6-2.4,6-3.2,7.6
				c-2.6,4.6-6.4,9.5-7.3,9.5c-1.4,0-14-4.2-16.2-5.4c-1.1-0.6-2.3-1.1-2.5-1.1c-0.3,0-1.1-0.5-1.9-1.2c-1.9-1.6-3.1-1.5-5.9,0.6
				c-1.3,1-3.4,2.2-4.7,2.6s-3.4,1.6-4.7,2.4c-4.1,2.7-5.4,3.6-9.8,6.4c-2.3,1.5-4.2,2.9-4.1,3.2c0.1,0.3,1.5,0.9,3.1,1.5
				c1.6,0.6,3.5,1.4,4.3,1.9c0.7,0.5,2.7,1.5,4.4,2.3c1.7,0.8,5,2.6,7.4,4c2.3,1.4,5.2,3,6.3,3.6c3,1.5,3.9,2.6,3.9,4.5
				c0,2.7-2.6,5.9-13.8,16.9c-11.3,11.1-12.9,13.2-12.6,17.1c0.1,1.6,0.5,2.4,2.3,4.3c1.2,1.3,2.5,2.4,2.9,2.4
				c0.4,0,0.8,0.3,0.9,0.7c0.1,0.4,1.2,0.8,2.4,1c2.5,0.4,3.7,1.3,3.5,2.7c-0.2,1.7-2.1,2.2-6.8,2c-3.3-0.1-4.8-0.4-6.4-1.2
				c-1.1-0.6-4.6-2-7.8-3.1c-3.1-1.1-6.2-2.5-6.8-3.1c-1.1-1-1.1-1.1-0.2-2c0.5-0.5,1.6-2.3,2.5-4c1-1.9,1.9-3,2.4-3
				c1,0,6.8-7.6,10.8-14.2c4.6-7.7,5.5-8.9,7.5-11.1c1.1-1.1,1.7-2.2,1.5-2.4c-0.2-0.2-4-0.9-8.4-1.5s-10.1-1.7-12.5-2.3l-4.5-1.2
				l-2.4,1.6c-1.3,0.9-4.6,3.5-7.2,5.9c-7.8,7.1-12.1,10.7-15.6,12.9c-1.8,1.1-4.4,3-5.7,4.1c-1.3,1.1-4.2,2.9-6.4,3.9
				c-2.2,1.1-5.5,3.1-7.4,4.4c-1.8,1.3-5.2,3.7-7.6,5.1c-4.9,3.1-14.1,12.1-15,14.5c-0.3,0.8-0.7,1.5-0.9,1.5c-0.5,0-3.8,5-3.8,5.7
				c0,0.3-0.4,1.1-0.8,1.7c-0.5,0.6-1.3,2.4-1.8,3.9c-0.8,2.3-1.2,2.8-2.2,2.9C28.9,356.4,28.2,356.2,27.9,355.8L27.9,355.8z"/>
			<g id="flowRoot5033" transform="matrix(0.26458333,0,0,0.26458333,13.119809,129.44937)">
			</g>
		</g>
	</g>
</g>
</svg>
