<?xml version="1.0" encoding="utf-8"?>
<!-- Generator: Adobe Illustrator 23.0.3, SVG Export Plug-In . SVG Version: 6.00 Build 0)  -->
<svg version="1.1"
	 id="svg8" inkscape:version="0.92.2 (5c3e80d, 2017-08-06)" sodipodi:docname="Sportest_Logo_v3.0.svg" xmlns:cc="http://creativecommons.org/ns#" xmlns:dc="http://purl.org/dc/elements/1.1/" xmlns:inkscape="http://www.inkscape.org/namespaces/inkscape" xmlns:osb="http://www.openswatchbook.org/uri/2009/osb" xmlns:rdf="http://www.w3.org/1999/02/22-rdf-syntax-ns#" xmlns:sodipodi="http://sodipodi.sourceforge.net/DTD/sodipodi-0.dtd" xmlns:svg="http://www.w3.org/2000/svg"
	 xmlns="http://www.w3.org/2000/svg" xmlns:xlink="http://www.w3.org/1999/xlink" x="0px" y="0px" viewBox="0 0 595.3 841.9"
	 style="enable-background:new 0 0 595.3 841.9;" xml:space="preserve">
<style type="text/css">
	.st0{fill:url(#path4623_1_);}
	.st1{fill:url(#SVGID_1_);}
	.st2{fill:url(#SVGID_2_);}
	.st3{fill:url(#SVGID_3_);}
	.st4{fill:url(#SVGID_4_);}
	.st5{fill:url(#SVGID_5_);}
	.st6{fill:url(#SVGID_6_);}
	.st7{fill:url(#SVGID_7_);}
	.st8{fill:url(#SVGID_8_);}
</style>
<sodipodi:namedview  bordercolor="#666666" borderopacity="1.0" id="base" inkscape:current-layer="g5171" inkscape:cx="342.21807" inkscape:cy="1003.5284" inkscape:document-units="mm" inkscape:pageopacity="0.0" inkscape:pageshadow="2" inkscape:window-height="705" inkscape:window-maximized="1" inkscape:window-width="1366" inkscape:window-x="-8" inkscape:window-y="-8" inkscape:zoom="0.7" pagecolor="#ffffff" showgrid="false">
	</sodipodi:namedview>
<g id="layer1" inkscape:groupmode="layer" inkscape:label="Ebene 1">
	<g id="layer1-9" transform="translate(-10.237228,-69.08535)" inkscape:label="Ebene 1">
		<g id="g5171" transform="translate(5.61266,-9.8889729)">
			<linearGradient id="path4623_1_" gradientUnits="userSpaceOnUse" x1="22.141" y1="349.2467" x2="175.5789" y2="215.4261">
				<stop  offset="0" style="stop-color:#FF6600"/>
				<stop  offset="0.2602" style="stop-color:#FF0000"/>
				<stop  offset="0.4074" style="stop-color:#E81700"/>
				<stop  offset="0.5503" style="stop-color:#BF0000"/>
				<stop  offset="0.7287" style="stop-color:#800000"/>
				<stop  offset="1" style="stop-color:#550000"/>
			</linearGradient>
			<path id="path4623" inkscape:connector-curvature="0" class="st0" d="M27.9,355.8c-1-1.3-1.6-4.2-1.4-6.6
				c0.1-1.3,0.5-6.2,0.7-10.8c0.2-4.8,0.7-8.8,1-9.4c0.6-1.1,1.4-1.3,2.2-0.7c0.9,0.8,4.4,1.6,5.5,1.2c2.3-0.7,5.6-3.6,13.1-11.5
				l7.7-8.1l5.6-2.8c7.7-3.8,8.8-4.9,14.7-14c1-1.5,3.3-4.4,5.2-6.3c4.2-4.3,4.8-5.2,5.2-8.1c0.5-3.6,2.1-7.2,4-9.2
				c1.7-1.9,5.9-4.7,8.1-5.5c2-0.8,9.2-7.8,11.9-11.7c2.1-3,6.1-7.6,10.2-11.7c2.7-2.7,5-5.6,5-6.3c0-0.2-0.8-0.9-1.8-1.5
				s-3-2.2-4.4-3.5l-2.6-2.3l-5-0.3c-2.7-0.2-5.8-0.5-6.9-0.8c-1.2-0.3-3.9-0.4-7.4-0.3c-4.9,0.2-5.8,0.4-8.5,1.7
				c-3.4,1.7-4.7,2.9-4.7,4.6c0,1.5-1.2,1-1.4-0.6c-0.1-0.7,0.1-1.8,0.4-2.4c0.3-0.6,0.4-1.4,0.3-1.8c-0.3-0.7-0.9-0.7-5.1-0.4
				c-4,0.3-4.8,0.2-4.6-0.3c0.1-0.3,1.4-0.9,2.9-1.2c4.2-0.8,4.3-1.4,0.1-1.8c-3-0.3-3.6-0.5-3.5-1.1c0.1-0.6,0.7-0.7,3.8-0.6
				c2.1,0.1,3.7,0,3.7-0.3c0-0.2-1.3-0.8-2.8-1.3c-2.1-0.6-2.8-1.1-2.8-1.7c0-0.5,0.1-0.9,0.1-0.9c0.1,0,1.5,0.4,3.2,0.9
				c1.7,0.5,3.2,0.9,3.4,0.9c0.8,0,0.3-1.3-1.3-3.1c-0.9-1-1.7-2-1.7-2.2c0-0.7,1.3-0.1,3.3,1.6c1.6,1.3,3,2,4.8,2.4
				c1.4,0.3,3.1,0.8,3.9,1.2c1.1,0.6,2,0.6,6.2,0.1c2.7-0.3,8.3-0.6,12.4-0.6h7.6l5.6,2.7c3.1,1.5,5.8,2.7,6,2.7
				c1.2,0,11.8,5.8,12.9,7c1.4,1.6,2.8,1.5,2.8-0.3c0-1.5,3.2-4.2,6.2-5.1c3.2-1,7.7-0.7,9.3,0.7c0.6,0.5,1.2,0.9,1.5,0.9
				c1,0,3,1.2,3.3,1.9c0.1,0.4,0.7,1,1.3,1.2c1.4,0.6,2.7,3.2,2.7,5.3c0,2.3-0.5,2.8-2.6,2.7c-1.6-0.1-1.8,0-2.3,1.2
				c-0.3,0.8-0.7,1.6-1.1,1.7c-0.3,0.2-0.7,1.4-0.9,2.7c-0.3,2-0.5,2.3-1.3,2.3c-0.6,0-1.5,0.5-2.1,1.2c-0.6,0.6-1.4,1.2-1.8,1.2
				c-0.4,0-0.7,0.3-0.7,0.7c0,0.4,0.3,0.7,0.7,0.7s0.7,0.2,0.7,0.4c0,0.2,0.5,0.5,1.1,0.7c0.6,0.2,2.1,1,3.3,1.9
				c3.1,2.3,3.9,2.2,7.3-1.3c2.9-3,5.3-6.9,6.6-10.4c0.6-1.8,0.6-2.2-0.1-4.4c-0.5-1.6-1.5-3.1-2.6-4.2l-1.8-1.7h1.3
				c0.7,0,1.8,0.5,2.4,1c1.7,1.6,2.6,0.7,3.6-3.5c0.6-2.5,1.1-3.6,1.6-3.6c0.6,0,0.6,0.4,0.4,1.7c-0.4,2,0.2,1.7,1-0.5
				c0.5-1.6,1.6-2.3,1.6-1.1c0,0.4,0.2,0.7,0.5,0.7c0.4,0,0.5,1,0.3,3.3c-0.3,3.6,0.3,4.3,1.1,1.4c0.6-1.9,1.4-2.5,1.4-1
				c0,0.4-0.3,1.8-0.7,2.9c-0.4,1.2-0.9,2.9-1.2,4c-0.3,1-1.2,2.9-2,4.1c-0.8,1.2-2.2,4.3-3.1,7c-0.9,2.6-2.4,6-3.2,7.6
				c-2.6,4.6-6.4,9.5-7.3,9.5c-1.4,0-14-4.2-16.2-5.4c-1.1-0.6-2.3-1.1-2.5-1.1c-0.3,0-1.1-0.5-1.9-1.2c-1.9-1.6-3.1-1.5-5.9,0.6
				c-1.3,1-3.4,2.2-4.7,2.6s-3.4,1.6-4.7,2.4c-4.1,2.7-5.4,3.6-9.8,6.4c-2.3,1.5-4.2,2.9-4.1,3.2c0.1,0.3,1.5,0.9,3.1,1.5
				c1.6,0.6,3.5,1.4,4.3,1.9c0.7,0.5,2.7,1.5,4.4,2.3c1.7,0.8,5,2.6,7.4,4c2.3,1.4,5.2,3,6.3,3.6c3,1.5,3.9,2.6,3.9,4.5
				c0,2.7-2.6,5.9-13.8,16.9c-11.3,11.1-12.9,13.2-12.6,17.1c0.1,1.6,0.5,2.4,2.3,4.3c1.2,1.3,2.5,2.4,2.9,2.4
				c0.4,0,0.8,0.3,0.9,0.7c0.1,0.4,1.2,0.8,2.4,1c2.5,0.4,3.7,1.3,3.5,2.7c-0.2,1.7-2.1,2.2-6.8,2c-3.3-0.1-4.8-0.4-6.4-1.2
				c-1.1-0.6-4.6-2-7.8-3.1c-3.1-1.1-6.2-2.5-6.8-3.1c-1.1-1-1.1-1.1-0.2-2c0.5-0.5,1.6-2.3,2.5-4c1-1.9,1.9-3,2.4-3
				c1,0,6.8-7.6,10.8-14.2c4.6-7.7,5.5-8.9,7.5-11.1c1.1-1.1,1.7-2.2,1.5-2.4c-0.2-0.2-4-0.9-8.4-1.5s-10.1-1.7-12.5-2.3l-4.5-1.2
				l-2.4,1.6c-1.3,0.9-4.6,3.5-7.2,5.9c-7.8,7.1-12.1,10.7-15.6,12.9c-1.8,1.1-4.4,3-5.7,4.1c-1.3,1.1-4.2,2.9-6.4,3.9
				c-2.2,1.1-5.5,3.1-7.4,4.4c-1.8,1.3-5.2,3.7-7.6,5.1c-4.9,3.1-14.1,12.1-15,14.5c-0.3,0.8-0.7,1.5-0.9,1.5c-0.5,0-3.8,5-3.8,5.7
				c0,0.3-0.4,1.1-0.8,1.7c-0.5,0.6-1.3,2.4-1.8,3.9c-0.8,2.3-1.2,2.8-2.2,2.9C28.9,356.4,28.2,356.2,27.9,355.8L27.9,355.8z"/>
			<g id="flowRoot5033" transform="matrix(0.26458333,0,0,0.26458333,13.119809,129.44937)">
			</g>
		</g>
	</g>
</g>
<g>
	<g>
		<linearGradient id="SVGID_1_" gradientUnits="userSpaceOnUse" x1="142.8071" y1="212.0726" x2="526.2559" y2="212.0726">
			<stop  offset="0" style="stop-color:#FF6600"/>
			<stop  offset="0.2602" style="stop-color:#FF0000"/>
			<stop  offset="0.4074" style="stop-color:#E81700"/>
			<stop  offset="0.5503" style="stop-color:#BF0000"/>
			<stop  offset="0.7287" style="stop-color:#800000"/>
			<stop  offset="1" style="stop-color:#550000"/>
		</linearGradient>
		<path class="st1" d="M164.2,199.3c-0.3,0-0.6,0.1-0.8,0.3c-0.2,0.2-0.4,0.4-0.5,0.7c0,0,0,0.1,0,0.1c0,0,0,0.1-0.1,0.2
			c0,0.1-0.1,0.3-0.1,0.5c0,0.2-0.1,0.5-0.2,0.8c-0.1,0.3-0.2,0.7-0.3,1.2c-0.1,0.5-0.3,1.1-0.4,1.7c-0.1,0.4,0,0.8,0.3,1.2
			c0.3,0.3,0.6,0.5,1,0.5c0,0,0.1,0,0.1,0c0,0,0.1,0,0.2,0s0.3,0,0.5,0s0.5,0,0.8,0s0.7,0,1.2,0s1,0,1.6,0s1.4,0,2.2,0
			c0.8,0,1.8,0,2.8,0c1,0,2.2,0,3.5,0c1.3,0,2.7,0,4.3,0c3.2,0,5.7,1.2,7.6,3.7c1.9,2.4,2.5,5.3,1.7,8.5c0,0,0,0.1,0,0.1
			c0,0,0,0.1-0.1,0.2c0,0.1-0.1,0.3-0.1,0.5c0,0.2-0.1,0.5-0.2,0.8c-0.1,0.3-0.2,0.7-0.3,1.1s-0.2,1-0.4,1.6
			c-0.2,0.6-0.3,1.3-0.5,2.1c-0.2,0.8-0.4,1.7-0.7,2.7c-0.6,2.3-1.8,4.2-3.7,5.6c-1.8,1.5-3.9,2.2-6.4,2.2c0,0-0.1,0-0.1,0
			c-0.1,0-0.2,0-0.3,0s-0.3,0-0.6,0s-0.6,0-0.9,0s-0.9,0-1.4,0s-1.2,0-2,0s-1.7,0-2.7,0c-1,0-2.1,0-3.4,0s-2.7,0-4.2,0
			c-1.6,0-3.3,0-5.2,0s-4,0-6.2,0s-4.7,0-7.3,0c0,0,0-0.1,0-0.1c0-0.1,0-0.2,0.1-0.3c0-0.1,0.1-0.3,0.1-0.5c0.1-0.2,0.1-0.5,0.2-0.9
			c0.1-0.4,0.2-0.8,0.3-1.4c0.1-0.5,0.3-1.2,0.4-1.9s0.4-1.6,0.6-2.5c0.2-1,0.5-2,0.8-3.2c0,0,0.1,0,0.1,0c0.1,0,0.1,0,0.3,0
			c0.1,0,0.3,0,0.5,0c0.2,0,0.5,0,0.8,0c0.3,0,0.8,0,1.2,0s1.1,0,1.7,0s1.4,0,2.3,0s1.9,0,3,0c1.1,0,2.4,0,3.7,0c1.4,0,2.9,0,4.6,0
			c1.7,0,3.5,0,5.5,0c2,0,4.1,0,6.5,0c0.7,0,1.1-0.3,1.4-1c0,0,0-0.1,0-0.1c0,0,0-0.1,0.1-0.2c0-0.1,0.1-0.3,0.1-0.5
			c0.1-0.2,0.1-0.5,0.2-0.8c0.1-0.3,0.2-0.7,0.3-1.2c0.1-0.5,0.2-1.1,0.4-1.7c0.2-0.4,0.1-0.8-0.1-1.1c-0.2-0.3-0.6-0.5-1-0.5
			c0,0,0,0,0,0c0,0,0,0-0.1,0c-0.1,0-0.1,0-0.2,0s-0.3,0-0.5,0s-0.5,0-0.8,0c-0.3,0-0.7,0-1.2,0s-1,0-1.6,0s-1.4,0-2.2,0
			c-0.8,0-1.8,0-2.8,0s-2.2,0-3.5,0s-2.7,0-4.3,0c-3.2,0-5.7-1.2-7.6-3.6c-1.9-2.4-2.5-5.2-1.8-8.5c0,0,0-0.1,0-0.1
			c0,0,0-0.1,0.1-0.2c0-0.1,0.1-0.3,0.1-0.5c0-0.2,0.1-0.5,0.2-0.8c0.1-0.3,0.2-0.7,0.3-1.1c0.1-0.4,0.2-1,0.4-1.6
			c0.1-0.6,0.3-1.3,0.5-2.1c0.2-0.8,0.4-1.7,0.7-2.7c2-5.1,5.3-7.6,10-7.6c0,0,0.1,0,0.1,0c0.1,0,0.2,0,0.3,0s0.3,0,0.6,0
			c0.3,0,0.6,0,1,0s0.9,0,1.4,0s1.2,0,2,0s1.7,0,2.7,0c1,0,2.1,0,3.4,0c1.3,0,2.7,0,4.3,0c1.6,0,3.3,0,5.2,0s4,0,6.3,0
			c2.3,0,4.7,0,7.4,0c0,0,0,0.1,0,0.1c0,0.1,0,0.2-0.1,0.3c0,0.1-0.1,0.3-0.1,0.5c-0.1,0.2-0.1,0.5-0.2,0.9
			c-0.1,0.4-0.2,0.8-0.4,1.3c-0.1,0.5-0.3,1.2-0.5,1.9c-0.2,0.7-0.4,1.6-0.7,2.5s-0.5,2-0.8,3.2c0,0-0.1,0-0.1,0c0,0-0.1,0-0.3,0
			c-0.1,0-0.3,0-0.5,0s-0.5,0-0.8,0s-0.8,0-1.3,0s-1.1,0-1.7,0s-1.4,0-2.3,0s-1.9,0-3,0c-1.1,0-2.4,0-3.7,0s-2.9,0-4.6,0
			c-1.7,0-3.5,0-5.5,0C168.7,199.3,166.5,199.3,164.2,199.3z"/>
		<linearGradient id="SVGID_2_" gradientUnits="userSpaceOnUse" x1="142.8071" y1="212.0726" x2="526.2559" y2="212.0726">
			<stop  offset="0" style="stop-color:#FF6600"/>
			<stop  offset="0.2602" style="stop-color:#FF0000"/>
			<stop  offset="0.4074" style="stop-color:#E81700"/>
			<stop  offset="0.5503" style="stop-color:#BF0000"/>
			<stop  offset="0.7287" style="stop-color:#800000"/>
			<stop  offset="1" style="stop-color:#550000"/>
		</linearGradient>
		<path class="st2" d="M208.5,188.5h23.2c3.3,0,6,1.2,8,3.7c2.1,2.4,2.7,5.3,2.1,8.4c-0.8,3.5-1.7,7.5-2.7,12
			c-0.6,2.3-1.8,4.1-3.6,5.6c-1.9,1.5-4,2.2-6.5,2.2c0,0-0.1,0-0.1,0s-0.2,0-0.3,0s-0.3,0-0.5,0s-0.5,0-0.9,0s-0.8,0-1.3,0
			s-1.1,0-1.8,0s-1.5,0-2.4,0s-1.9,0-3.1,0c-1.1,0-2.4,0-3.8,0c-1.4,0-3,0-4.7,0s-3.6,0-5.6,0c0,0,0-0.1,0-0.1c0,0,0,0,0-0.1
			c0,0,0,0.1-0.1,0.1c0,0.1,0,0.1-0.1,0.2c0,0.1-0.1,0.2-0.1,0.4c0,0.2-0.1,0.3-0.1,0.5c0,0.2-0.1,0.5-0.2,0.8
			c-0.1,0.3-0.2,0.6-0.2,1c-0.1,0.4-0.2,0.8-0.3,1.2s-0.2,1-0.4,1.5c-0.1,0.6-0.3,1.2-0.4,1.8c-0.2,0.7-0.3,1.4-0.5,2.2
			c-0.2,0.8-0.4,1.7-0.6,2.6c-0.2,0.9-0.4,1.9-0.7,3c0,0-0.1,0-0.1,0c-0.1,0-0.2,0-0.3,0c-0.2,0-0.4,0-0.6,0c-0.3,0-0.6,0-1,0
			c-0.4,0-0.9,0-1.5,0c-0.6,0-1.3,0-2.1,0c-0.8,0-1.7,0-2.7,0c-1,0-2.2,0-3.5,0c0,0,0-0.1,0-0.1c0-0.1,0-0.1,0.1-0.3
			c0-0.1,0.1-0.3,0.1-0.5c0.1-0.2,0.1-0.5,0.2-0.9c0.1-0.4,0.2-0.8,0.3-1.3c0.1-0.5,0.3-1.1,0.4-1.8s0.4-1.5,0.6-2.4
			c0.2-0.9,0.5-2,0.7-3.1c0.3-1.2,0.6-2.5,0.9-3.9c0.4-1.4,0.7-3,1.1-4.7c0.4-1.7,0.9-3.6,1.4-5.7c0.5-2.1,1-4.3,1.6-6.7
			c0.6-2.4,1.2-5,1.9-7.8C200.3,191.1,203.7,188.5,208.5,188.5z M207,209.5h19.9c0.7,0,1.2-0.3,1.4-1l1.9-7.5c0.1-0.4,0-0.8-0.3-1.2
			c-0.3-0.3-0.6-0.5-1.1-0.5c0,0-0.1,0-0.1,0s-0.1,0-0.3,0s-0.3,0-0.5,0s-0.5,0-0.8,0s-0.8,0-1.3,0s-1.1,0-1.8,0s-1.4,0-2.3,0
			s-1.9,0-3,0s-2.4,0-3.7,0s-2.9,0-4.5,0c-0.3,0-0.6,0.1-0.8,0.3s-0.5,0.5-0.6,0.8L207,209.5z"/>
		<linearGradient id="SVGID_3_" gradientUnits="userSpaceOnUse" x1="142.8071" y1="212.0726" x2="526.2559" y2="212.0726">
			<stop  offset="0" style="stop-color:#FF6600"/>
			<stop  offset="0.2602" style="stop-color:#FF0000"/>
			<stop  offset="0.4074" style="stop-color:#E81700"/>
			<stop  offset="0.5503" style="stop-color:#BF0000"/>
			<stop  offset="0.7287" style="stop-color:#800000"/>
			<stop  offset="1" style="stop-color:#550000"/>
		</linearGradient>
		<path class="st3" d="M247.2,196.3c2.1-5.2,5.7-7.8,10.8-7.8c0,0,0.1,0,0.1,0s0.1,0,0.3,0s0.3,0,0.5,0s0.5,0,0.9,0s0.8,0,1.3,0
			s1.1,0,1.8,0s1.5,0,2.4,0s1.9,0,3.1,0s2.4,0,3.8,0s3,0,4.7,0s3.6,0,5.6,0c3.5,0,6.3,1.2,8.5,3.7c2.2,2.4,2.9,5.3,2.2,8.4
			c0,0,0,0.1,0,0.1s-0.1,0.2-0.1,0.3c0,0.1-0.1,0.3-0.1,0.6c-0.1,0.3-0.1,0.6-0.2,1s-0.2,0.9-0.4,1.4s-0.3,1.2-0.5,2
			s-0.4,1.7-0.7,2.7c-0.2,1-0.5,2.1-0.8,3.4s-0.7,2.7-1,4.3c-0.4,1.6-0.8,3.3-1.3,5.2c-0.5,1.9-1,4-1.5,6.2
			c-1.9,5.2-5.4,7.8-10.8,7.8c0,0-0.1,0-0.1,0s-0.1,0-0.3,0s-0.3,0-0.5,0s-0.5,0-0.9,0s-0.8,0-1.3,0s-1.1,0-1.8,0s-1.5,0-2.4,0
			s-1.9,0-3,0s-2.4,0-3.8,0s-3,0-4.6,0s-3.5,0-5.6,0c-3.6,0-6.4-1.2-8.6-3.7c-2.2-2.4-2.9-5.3-2.3-8.4c0,0,0-0.1,0-0.1
			s0-0.2,0.1-0.3c0-0.1,0.1-0.3,0.1-0.6c0.1-0.3,0.1-0.6,0.2-1s0.2-0.9,0.4-1.4s0.3-1.2,0.5-2s0.4-1.7,0.7-2.7
			c0.2-1,0.5-2.1,0.8-3.4s0.7-2.7,1-4.3c0.4-1.6,0.8-3.3,1.3-5.2C246.1,200.7,246.6,198.6,247.2,196.3z M273.5,224.8
			c0.7,0,1.2-0.4,1.5-1.2c0,0,0-0.1,0-0.1c0,0,0-0.1,0.1-0.2c0-0.1,0.1-0.3,0.1-0.5s0.1-0.5,0.2-0.8s0.2-0.7,0.3-1.2
			c0.1-0.5,0.3-1,0.4-1.7s0.3-1.4,0.5-2.2s0.4-1.8,0.7-2.9c0.3-1.1,0.6-2.3,0.9-3.6c0.3-1.3,0.7-2.8,1.1-4.3s0.8-3.3,1.3-5.2
			c0.1-0.4,0-0.8-0.3-1.2c-0.3-0.3-0.7-0.5-1.2-0.5c0,0-0.1,0-0.1,0s-0.2,0-0.3,0s-0.3,0-0.5,0s-0.5,0-0.9,0s-0.8,0-1.3,0
			s-1.1,0-1.8,0s-1.5,0-2.4,0s-2,0-3.1,0s-2.5,0-3.9,0s-3,0-4.7,0c-0.8,0-1.2,0.4-1.5,1.2c0,0,0,0.1,0,0.1c0,0,0,0.1-0.1,0.2
			c0,0.1-0.1,0.3-0.1,0.5s-0.1,0.5-0.2,0.8s-0.2,0.7-0.3,1.2c-0.1,0.5-0.3,1-0.4,1.7s-0.3,1.4-0.5,2.2s-0.4,1.8-0.7,2.9
			c-0.3,1.1-0.6,2.3-0.9,3.6c-0.3,1.3-0.7,2.8-1.1,4.3s-0.8,3.3-1.3,5.2c-0.1,0.4,0,0.8,0.4,1.2c0.3,0.3,0.7,0.5,1.1,0.5
			c0,0,0.1,0,0.1,0s0.2,0,0.3,0s0.3,0,0.5,0s0.5,0,0.9,0s0.8,0,1.3,0s1.1,0,1.8,0s1.5,0,2.4,0s1.9,0,3.1,0s2.4,0,3.9,0
			S271.8,224.8,273.5,224.8z"/>
		<linearGradient id="SVGID_4_" gradientUnits="userSpaceOnUse" x1="142.8071" y1="212.0726" x2="526.2559" y2="212.0726">
			<stop  offset="0" style="stop-color:#FF6600"/>
			<stop  offset="0.2602" style="stop-color:#FF0000"/>
			<stop  offset="0.4074" style="stop-color:#E81700"/>
			<stop  offset="0.5503" style="stop-color:#BF0000"/>
			<stop  offset="0.7287" style="stop-color:#800000"/>
			<stop  offset="1" style="stop-color:#550000"/>
		</linearGradient>
		<path class="st4" d="M310.4,220.4H303c0,0,0,0,0-0.1c0,0,0,0,0-0.1c0,0,0,0,0,0c0,0,0,0,0,0c0,0,0,0.1,0,0.1c0,0.1,0,0.1-0.1,0.2
			c0,0.1-0.1,0.2-0.1,0.4c0,0.2-0.1,0.3-0.1,0.5s-0.1,0.5-0.2,0.7s-0.1,0.6-0.2,1c-0.1,0.4-0.2,0.8-0.3,1.2c-0.1,0.5-0.2,1-0.4,1.5
			c-0.1,0.6-0.3,1.2-0.4,1.8s-0.3,1.4-0.5,2.2c-0.2,0.8-0.4,1.7-0.6,2.6c-0.2,0.9-0.4,1.9-0.7,3h-11.7l9.3-39.3
			c1.8-5.2,5.1-7.8,9.9-7.8h22.9c3.3,0,5.9,1.2,7.9,3.7c2,2.4,2.7,5.3,2.1,8.4c-0.8,3.5-1.7,7.5-2.7,12c-0.6,2.3-1.8,4.1-3.6,5.6
			c-1.8,1.5-4,2.2-6.4,2.2h-4.3l9.2,15.3h-12.5L310.4,220.4z M326.6,208.5l1.8-7.5c0.1-0.4,0-0.8-0.3-1.1c-0.3-0.3-0.6-0.5-1.1-0.5
			h-18.1c-0.3,0-0.5,0.1-0.8,0.3c-0.3,0.2-0.5,0.5-0.6,0.8l-2,9h19.6C325.9,209.4,326.3,209.1,326.6,208.5z"/>
		<linearGradient id="SVGID_5_" gradientUnits="userSpaceOnUse" x1="142.8071" y1="212.0726" x2="526.2559" y2="212.0726">
			<stop  offset="0" style="stop-color:#FF6600"/>
			<stop  offset="0.2602" style="stop-color:#FF0000"/>
			<stop  offset="0.4074" style="stop-color:#E81700"/>
			<stop  offset="0.5503" style="stop-color:#BF0000"/>
			<stop  offset="0.7287" style="stop-color:#800000"/>
			<stop  offset="1" style="stop-color:#550000"/>
		</linearGradient>
		<path class="st5" d="M359.3,199.2h-15.6l2.6-10.7h41.8l-2.6,10.7h-15.2l-7.7,36.4h-11.2L359.3,199.2z"/>
		<linearGradient id="SVGID_6_" gradientUnits="userSpaceOnUse" x1="142.8071" y1="212.0726" x2="526.2559" y2="212.0726">
			<stop  offset="0" style="stop-color:#FF6600"/>
			<stop  offset="0.2602" style="stop-color:#FF0000"/>
			<stop  offset="0.4074" style="stop-color:#E81700"/>
			<stop  offset="0.5503" style="stop-color:#BF0000"/>
			<stop  offset="0.7287" style="stop-color:#800000"/>
			<stop  offset="1" style="stop-color:#550000"/>
		</linearGradient>
		<path class="st6" d="M390.5,196.3c1.8-5.2,5.2-7.8,10-7.8H433l-2.5,10.8h-18.9h-9.1c-0.3,0-0.5,0.1-0.8,0.3s-0.5,0.5-0.6,0.8
			l-1.4,6.2h19.1l-2.4,10.8h-19.2l-1.3,5.7c-0.1,0.4,0,0.8,0.3,1.2c0.3,0.3,0.6,0.5,1.1,0.5h14.5v0h12.9c-0.8,3.3-1.6,6.9-2.5,10.8
			h-27.8c-3.3,0-6-1.2-8-3.7c-2.1-2.4-2.7-5.3-2.1-8.4L390.5,196.3z"/>
		<linearGradient id="SVGID_7_" gradientUnits="userSpaceOnUse" x1="142.8071" y1="212.0726" x2="526.2559" y2="212.0726">
			<stop  offset="0" style="stop-color:#FF6600"/>
			<stop  offset="0.2602" style="stop-color:#FF0000"/>
			<stop  offset="0.4074" style="stop-color:#E81700"/>
			<stop  offset="0.5503" style="stop-color:#BF0000"/>
			<stop  offset="0.7287" style="stop-color:#800000"/>
			<stop  offset="1" style="stop-color:#550000"/>
		</linearGradient>
		<path class="st7" d="M448.2,199.3c-0.3,0-0.6,0.1-0.8,0.3c-0.2,0.2-0.4,0.4-0.5,0.7c0,0,0,0.1,0,0.1c0,0,0,0.1-0.1,0.2
			c0,0.1-0.1,0.3-0.1,0.5c0,0.2-0.1,0.5-0.2,0.8c-0.1,0.3-0.2,0.7-0.3,1.2s-0.3,1.1-0.4,1.7c-0.1,0.4,0,0.8,0.3,1.2
			c0.3,0.3,0.6,0.5,1,0.5c0,0,0.1,0,0.1,0s0.1,0,0.2,0s0.3,0,0.5,0s0.5,0,0.8,0s0.7,0,1.2,0s1,0,1.6,0s1.4,0,2.2,0s1.8,0,2.8,0
			s2.2,0,3.5,0s2.7,0,4.3,0c3.2,0,5.7,1.2,7.6,3.7c1.9,2.4,2.5,5.3,1.7,8.5c0,0,0,0.1,0,0.1c0,0,0,0.1-0.1,0.2s-0.1,0.3-0.1,0.5
			c0,0.2-0.1,0.5-0.2,0.8c-0.1,0.3-0.2,0.7-0.3,1.1s-0.2,1-0.4,1.6c-0.2,0.6-0.3,1.3-0.5,2.1c-0.2,0.8-0.4,1.7-0.7,2.7
			c-0.6,2.3-1.8,4.2-3.7,5.6c-1.8,1.5-3.9,2.2-6.4,2.2c0,0-0.1,0-0.1,0s-0.2,0-0.3,0s-0.3,0-0.6,0s-0.6,0-0.9,0s-0.9,0-1.4,0
			s-1.2,0-2,0s-1.7,0-2.7,0s-2.1,0-3.4,0s-2.7,0-4.2,0s-3.3,0-5.2,0s-4,0-6.2,0s-4.7,0-7.3,0c0,0,0-0.1,0-0.1c0-0.1,0-0.2,0.1-0.3
			c0-0.1,0.1-0.3,0.1-0.5c0.1-0.2,0.1-0.5,0.2-0.9c0.1-0.4,0.2-0.8,0.3-1.4c0.1-0.5,0.3-1.2,0.4-1.9s0.4-1.6,0.6-2.5
			c0.2-1,0.5-2,0.8-3.2c0,0,0.1,0,0.1,0s0.1,0,0.3,0s0.3,0,0.5,0s0.5,0,0.8,0s0.8,0,1.2,0s1.1,0,1.7,0s1.4,0,2.3,0s1.9,0,3,0
			s2.4,0,3.7,0s2.9,0,4.6,0s3.5,0,5.5,0s4.1,0,6.5,0c0.7,0,1.1-0.3,1.4-1c0,0,0-0.1,0-0.1c0,0,0-0.1,0.1-0.2c0-0.1,0.1-0.3,0.1-0.5
			c0.1-0.2,0.1-0.5,0.2-0.8c0.1-0.3,0.2-0.7,0.3-1.2s0.2-1.1,0.4-1.7c0.2-0.4,0.1-0.8-0.1-1.1c-0.2-0.3-0.6-0.5-1-0.5c0,0,0,0,0,0
			s0,0-0.1,0s-0.1,0-0.2,0s-0.3,0-0.5,0s-0.5,0-0.8,0s-0.7,0-1.2,0s-1,0-1.6,0s-1.4,0-2.2,0s-1.8,0-2.8,0s-2.2,0-3.5,0s-2.7,0-4.3,0
			c-3.2,0-5.7-1.2-7.6-3.6c-1.9-2.4-2.5-5.2-1.8-8.5c0,0,0-0.1,0-0.1c0,0,0-0.1,0.1-0.2c0-0.1,0.1-0.3,0.1-0.5
			c0-0.2,0.1-0.5,0.2-0.8c0.1-0.3,0.2-0.7,0.3-1.1c0.1-0.4,0.2-1,0.4-1.6c0.1-0.6,0.3-1.3,0.5-2.1c0.2-0.8,0.4-1.7,0.7-2.7
			c2-5.1,5.3-7.6,10-7.6c0,0,0.1,0,0.1,0s0.2,0,0.3,0s0.3,0,0.6,0s0.6,0,1,0s0.9,0,1.4,0s1.2,0,2,0s1.7,0,2.7,0s2.1,0,3.4,0
			s2.7,0,4.3,0s3.3,0,5.2,0s4,0,6.3,0s4.7,0,7.4,0c0,0,0,0.1,0,0.1c0,0.1,0,0.2-0.1,0.3c0,0.1-0.1,0.3-0.1,0.5
			c-0.1,0.2-0.1,0.5-0.2,0.9c-0.1,0.4-0.2,0.8-0.4,1.3s-0.3,1.2-0.5,1.9c-0.2,0.7-0.4,1.6-0.7,2.5s-0.5,2-0.8,3.2c0,0-0.1,0-0.1,0
			s-0.1,0-0.3,0s-0.3,0-0.5,0s-0.5,0-0.8,0s-0.8,0-1.3,0s-1.1,0-1.7,0s-1.4,0-2.3,0s-1.9,0-3,0s-2.4,0-3.7,0s-2.9,0-4.6,0
			s-3.5,0-5.5,0S450.5,199.3,448.2,199.3z"/>
		<linearGradient id="SVGID_8_" gradientUnits="userSpaceOnUse" x1="142.8071" y1="212.0726" x2="526.2559" y2="212.0726">
			<stop  offset="0" style="stop-color:#FF6600"/>
			<stop  offset="0.2602" style="stop-color:#FF0000"/>
			<stop  offset="0.4074" style="stop-color:#E81700"/>
			<stop  offset="0.5503" style="stop-color:#BF0000"/>
			<stop  offset="0.7287" style="stop-color:#800000"/>
			<stop  offset="1" style="stop-color:#550000"/>
		</linearGradient>
		<path class="st8" d="M497.4,199.2h-15.6l2.6-10.7h41.8l-2.6,10.7h-15.2l-7.7,36.4h-11.2L497.4,199.2z"/>
	</g>
</g>
</svg>
